<svg id="OUTLINES" xmlns="http://www.w3.org/2000/svg" viewBox="0 0 150 169.28"><defs><style>.cls-1{fill:#221e1f;}</style></defs><title>bstar</title><polygon class="cls-1" points="31.31 134.38 75.01 102.66 118.66 134.39 102 83.17 145.59 51.32 91.78 51.32 75.01 0 58.34 51.32 4.41 51.32 47.97 82.96 31.31 134.38"/><polygon class="cls-1" points="37.23 156.67 34.68 148.88 32.15 156.67 23.97 156.67 30.58 161.47 28.05 169.28 34.68 164.46 41.31 169.28 38.78 161.5 45.4 156.67 37.23 156.67"/><polygon class="cls-1" points="6.65 156.67 4.1 148.88 1.57 156.67 0 161.47 4.1 164.46 10.73 169.28 8.2 161.5 6.65 156.67"/><polygon class="cls-1" points="118.99 156.67 116.44 148.88 113.91 156.67 112.34 161.47 109.81 169.28 116.44 164.46 123.07 169.28 120.54 161.5 118.99 156.67"/><polygon class="cls-1" points="63.24 156.67 55.05 156.67 61.66 161.47 59.13 169.28 65.77 164.46 69.86 161.5 76.48 156.67 68.31 156.67 63.24 156.67"/><polygon class="cls-1" points="90.49 156.67 85.41 156.67 77.24 156.67 83.86 161.5 87.96 164.46 94.59 169.28 92.06 161.47 98.67 156.67 90.49 156.67"/><polygon class="cls-1" points="150 156.67 141.83 156.67 139.28 148.88 136.75 156.67 135.18 161.47 139.28 164.46 145.91 169.28 143.38 161.5 150 156.67"/></svg>